<svg width="28" height="63" viewBox="0 0 28 63" fill="none" xmlns="http://www.w3.org/2000/svg">
<path d="M28.0023 28V0H21.0023V15.8737C19.1425 14.8006 17.0609 14.1697 14.9183 14.0298C12.7758 13.8898 10.6297 14.2445 8.64618 15.0665C6.66263 15.8885 4.89471 17.1556 3.47916 18.7701C2.0636 20.3845 1.03834 22.3028 0.482668 24.3768C-0.0730076 26.4508 -0.144207 28.6247 0.274575 30.7306C0.693358 32.8365 1.5909 34.8178 2.89779 36.5214C4.20468 38.225 5.88589 39.6051 7.81141 40.5551C9.73693 41.5051 11.8552 41.9995 14.0023 42C15.4329 42.0012 16.8287 42.4411 18.0015 43.2603C19.1743 44.0795 20.0677 45.2387 20.5612 46.5815C21.0547 47.9242 21.1246 49.3861 20.7614 50.7698C20.3982 52.1535 19.6194 53.3926 18.5301 54.3199C17.4407 55.2473 16.0932 55.8182 14.6693 55.9559C13.2453 56.0935 11.8134 55.7912 10.5666 55.0897C9.31983 54.3881 8.31816 53.3212 7.69666 52.0326C7.07517 50.7441 6.86376 49.2959 7.09094 47.8835L0.92277 43.9997C0.0101837 46.3872 -0.231389 48.9789 0.224244 51.4939C0.679878 54.009 1.81533 56.3513 3.50749 58.2669C5.19964 60.1825 7.38393 61.5983 9.8235 62.3608C12.2631 63.1233 14.8648 63.2034 17.3467 62.5924C19.8286 61.9814 22.0958 60.7026 23.9026 58.8947C25.7093 57.0868 26.9867 54.8188 27.5962 52.3365C28.2056 49.8543 28.1239 47.2526 27.3599 44.8135C26.5959 42.3744 25.1788 40.191 23.2621 38.5C24.7537 37.1877 25.9481 35.5723 26.7655 33.7616C27.5829 31.9509 28.0046 29.9867 28.0023 28ZM7.00227 28C7.00227 26.6155 7.41281 25.2622 8.18198 24.111C8.95115 22.9599 10.0444 22.0627 11.3235 21.5328C12.6026 21.003 14.01 20.8644 15.3679 21.1345C16.7258 21.4046 17.973 22.0713 18.952 23.0503C19.931 24.0292 20.5977 25.2765 20.8678 26.6344C21.1379 27.9922 20.9992 29.3997 20.4694 30.6788C19.9396 31.9579 19.0424 33.0511 17.8913 33.8203C16.7401 34.5895 15.3867 35 14.0023 35C12.1458 35 10.3653 34.2625 9.05252 32.9497C7.73977 31.637 7.00227 29.8565 7.00227 28Z" fill="#4B88A2"/>
</svg>
