<svg width="29" height="29" viewBox="0 0 29 29" fill="none" xmlns="http://www.w3.org/2000/svg">
<path d="M12.5748 1.8541C13.1735 0.0114822 15.7804 0.0114808 16.3791 1.8541L18.406 8.0922C18.6737 8.91625 19.4416 9.47417 20.3081 9.47417H26.8672C28.8046 9.47417 29.6102 11.9534 28.0428 13.0922L22.7363 16.9476C22.0353 17.4568 21.742 18.3596 22.0098 19.1836L24.0367 25.4217C24.6354 27.2643 22.5264 28.7966 20.959 27.6578L15.6525 23.8024C14.9516 23.2932 14.0024 23.2932 13.3014 23.8024L7.99495 27.6578C6.42752 28.7966 4.31856 27.2644 4.91726 25.4217L6.94414 19.1836C7.21189 18.3596 6.91857 17.4568 6.2176 16.9476L0.911156 13.0922C-0.656271 11.9534 0.149278 9.47417 2.08672 9.47417H8.64585C9.5123 9.47417 10.2802 8.91625 10.548 8.0922L12.5748 1.8541Z" fill="#FED766"/>
</svg>
