<svg width="28" height="63" viewBox="0 0 28 63" fill="none" xmlns="http://www.w3.org/2000/svg">
<g clip-path="url(#clip0_30_15)">
<path d="M27.9998 28V0H20.9998V15.8737C19.1401 14.8006 17.0584 14.1697 14.9159 14.0298C12.7733 13.8898 10.6273 14.2445 8.64375 15.0665C6.6602 15.8885 4.89229 17.1556 3.47673 18.7701C2.06118 20.3845 1.03592 22.3028 0.480241 24.3768C-0.0754337 26.4508 -0.146633 28.6247 0.272149 30.7306C0.690932 32.8365 1.58847 34.8178 2.89536 36.5214C4.20225 38.225 5.88347 39.6051 7.80898 40.5551C9.7345 41.5051 11.8527 41.9995 13.9998 42C15.4304 42.0012 16.8263 42.4411 17.9991 43.2603C19.1719 44.0795 20.0653 45.2387 20.5588 46.5815C21.0523 47.9242 21.1221 49.3861 20.759 50.7698C20.3958 52.1535 19.617 53.3926 18.5277 54.3199C17.4383 55.2473 16.0908 55.8182 14.6669 55.9559C13.2429 56.0935 11.811 55.7912 10.5642 55.0897C9.31741 54.3881 8.31573 53.3212 7.69424 52.0326C7.07275 50.7441 6.86133 49.2959 7.08851 47.8835L0.920344 43.9997C0.00775755 46.3872 -0.233816 48.9789 0.221818 51.4939C0.677452 54.009 1.8129 56.3513 3.50506 58.2669C5.19722 60.1825 7.3815 61.5983 9.82108 62.3608C12.2607 63.1233 14.8624 63.2034 17.3443 62.5924C19.8261 61.9814 22.0934 60.7026 23.9001 58.8947C25.7069 57.0868 26.9843 54.8188 27.5938 52.3365C28.2032 49.8543 28.1215 47.2526 27.3575 44.8135C26.5935 42.3744 25.1763 40.191 23.2597 38.5C24.7512 37.1877 25.9456 35.5723 26.7631 33.7616C27.5805 31.9509 28.0021 29.9867 27.9998 28ZM6.99984 28C6.99984 26.6155 7.41039 25.2622 8.17956 24.111C8.94873 22.9599 10.042 22.0627 11.3211 21.5328C12.6001 21.003 14.0076 20.8644 15.3655 21.1345C16.7233 21.4046 17.9706 22.0713 18.9496 23.0503C19.9286 24.0292 20.5952 25.2765 20.8653 26.6344C21.1354 27.9922 20.9968 29.3997 20.467 30.6788C19.9372 31.9579 19.04 33.0511 17.8888 33.8203C16.7377 34.5895 15.3843 35 13.9998 35C12.1433 35 10.3629 34.2625 9.0501 32.9497C7.73734 31.637 6.99984 29.8565 6.99984 28Z" fill="#4B88A2"/>
</g>
<defs>
<clipPath id="clip0_30_15">
<rect width="28" height="63" fill="white"/>
</clipPath>
</defs>
</svg>
